<!--?xml version="1.0" encoding="utf-8"?-->
<!-- Svg Vector Icons : http://www.onlinewebfonts.com/icon -->

<svg version="1.1" xmlns="http://www.w3.org/2000/svg" xmlns:xlink="http://www.w3.org/1999/xlink" x="0px" y="0px" viewBox="0 0 256 256" enable-background="new 0 0 256 256" xml:space="preserve">
<metadata> Svg Vector Icons : http://www.onlinewebfonts.com/icon </metadata>
<g><g><g><path fill="#707070" data-title="Layer 0" xs="0" d="M232,10H24c-7.7,0-14,6.2-14,14V232c0,7.7,6.3,14,14,14H232c7.7,0,14-6.3,14-14V23.9C246,16.2,239.7,10,232,10z M189.7,142H142v47.7c0,7.7-6.3,14-14,14c-7.7,0-14-6.2-14-14V142H66.4c-7.7,0-14-6.2-14-14c0-7.7,6.3-14,14-14H114V66.3c0-7.7,6.3-14,14-14c7.7,0,14,6.2,14,14V114h47.7c7.7,0,14,6.2,14,14C203.6,135.7,197.4,142,189.7,142z"/></g><g></g><g></g><g></g><g></g><g></g><g></g><g></g><g></g><g></g><g></g><g></g><g></g><g></g><g></g><g></g></g></g>
</svg>